<svg width="130" height="195" viewBox="0 0 130 195" fill="none" xmlns="http://www.w3.org/2000/svg">
<path fill-rule="evenodd" clip-rule="evenodd" d="M52 33.3002V21H77V33.1054C84.5385 34.5124 91.6192 37.2206 98 40.9881V16C98 7.16344 90.8366 0 82 0H47C38.1634 0 31 7.16344 31 16V41.5907C37.3584 37.6808 44.441 34.8346 52 33.3002ZM52 160.7C44.441 159.165 37.3584 156.319 31 152.409V179C31 187.837 38.1634 195 47 195H82C90.8366 195 98 187.837 98 179V153.012C91.6192 156.779 84.5385 159.488 77 160.895V174H52V160.7Z" fill="white"/>
<circle cx="65" cy="97" r="54.5" stroke="white" stroke-width="21"/>
<path d="M65 69V95.1818C65 97.2441 65.9094 99.2014 67.4854 100.531L87 117" stroke="white" stroke-width="12" stroke-linecap="round"/>
</svg>
