<svg width="155" height="144" viewBox="0 0 155 144" fill="none" xmlns="http://www.w3.org/2000/svg">
<path d="M100.289 75.0003C113.012 71.0348 139.822 70.116 146.129 97.7725C146.237 98.2466 146.289 98.7454 146.289 99.2316V128.5C146.289 132.366 143.155 135.5 139.289 135.5H101.234C96.6862 135.5 93.2921 131.215 93.6507 126.681C95.2582 106.36 88.7335 73.0918 51.8824 69.1087C51.1723 69.032 50.4284 69.0767 49.7323 69.2366C24.3138 75.0738 7.45854 89.7022 8.01329 125.947C8.06967 129.63 11.1501 132.5 14.8336 132.5H72.2892" stroke="white" stroke-width="16" stroke-linecap="round"/>
<circle cx="52.2891" cy="28.5" r="22" stroke="white" stroke-width="13"/>
<circle cx="117.289" cy="28.5" r="22" stroke="white" stroke-width="13"/>
</svg>
