<svg width="116" height="174" viewBox="0 0 116 174" fill="none" xmlns="http://www.w3.org/2000/svg">
<path d="M41 121H72V159C72 163.971 67.9706 168 63 168H50C45.0294 168 41 163.971 41 159V121Z" stroke="white" stroke-width="12"/>
<path d="M8.5 74.5H107.5V106C107.5 109.59 104.59 112.5 101 112.5H15C11.4102 112.5 8.5 109.59 8.5 106V74.5Z" stroke="white" stroke-width="17"/>
<path d="M12.5 9C12.5 7.61929 13.6193 6.5 15 6.5H99C100.381 6.5 101.5 7.61929 101.5 9V66C101.5 70.6944 97.6944 74.5 93 74.5H57H21C16.3056 74.5 12.5 70.6944 12.5 66V9Z" stroke="white" stroke-width="13"/>
<path d="M43.0004 33.5C33.3515 33.5 35.885 25.8056 37.1029 10.7543C37.4072 6.9937 40.4919 4 44.2648 4H48.9999H69H70.4828C74.601 4 77.8211 7.54964 77.9638 11.6654C78.6813 32.3506 88.09 51 72.5003 51C58.0004 51 67.5 28.5 69 4H48.9999C49.3331 15.1667 57.1426 33.5 43.0004 33.5Z" fill="white"/>
<path d="M48.9999 4C49.3331 15.1667 57.1426 33.5 43.0004 33.5C33.3515 33.5 35.885 25.8056 37.1029 10.7543C37.4072 6.9937 40.4919 4 44.2648 4H48.9999ZM48.9999 4H69M69 4C67.5 28.5 58.0004 51 72.5003 51C88.09 51 78.6813 32.3506 77.9638 11.6654C77.8211 7.54964 74.601 4 70.4828 4H69Z" stroke="white" stroke-width="8"/>
</svg>
