<svg width="189" height="144" viewBox="0 0 189 144" fill="none" xmlns="http://www.w3.org/2000/svg">
<path d="M161.5 137V105.5M161.5 57.5H26.5M161.5 57.5L182 44.5M161.5 57.5L134.518 10.5141C133.27 8.34035 130.954 7 128.448 7H58.6228C56.0785 7 53.7346 8.38051 52.5008 10.6057L26.5 57.5M161.5 57.5V81.5M26.5 57.5L7 44.5M26.5 57.5C26.5 66.8726 26.5 74.1863 26.5 81.5M26.5 137V105.5M26.5 105.5H161.5M26.5 105.5C26.5 96.1274 26.5 88.8137 26.5 81.5M161.5 105.5V81.5M161.5 81.5H125M26.5 81.5H67.5" stroke="white" stroke-width="13" stroke-linecap="round"/>
</svg>
